<svg width="24" height="24" viewBox="0 0 24 24" fill="none" xmlns="http://www.w3.org/2000/svg">
<path d="M16.9861 23.9971L7.01246 23.9971C5.88457 24.039 4.7857 23.6341 3.95463 22.8704C3.12356 22.1067 2.62742 21.0459 2.57403 19.9185L2.57403 14.5716C2.57403 14.3444 2.6643 14.1264 2.82499 13.9658C2.98568 13.8051 3.20362 13.7148 3.43087 13.7148C3.65811 13.7148 3.87606 13.8051 4.03674 13.9658C4.19743 14.1264 4.28771 14.3444 4.28771 14.5716L4.28771 19.9185C4.34037 20.5915 4.65566 21.2168 5.16549 21.6593C5.67531 22.1018 6.33874 22.3259 7.01246 22.2834L16.9861 22.2834C17.6598 22.3259 18.3232 22.1018 18.833 21.6593C19.3429 21.2168 19.6582 20.5915 19.7108 19.9185L19.7108 14.5716C19.7108 14.3444 19.8011 14.1264 19.9618 13.9658C20.1225 13.8051 20.3404 13.7148 20.5677 13.7148C20.7949 13.7148 21.0129 13.8051 21.1735 13.9658C21.3342 14.1264 21.4245 14.3444 21.4245 14.5716L21.4245 19.9185C21.3711 21.0459 20.875 22.1067 20.0439 22.8704C19.2128 23.6341 18.114 24.039 16.9861 23.9971ZM23.7465 12.6094C23.8269 12.5298 23.8906 12.435 23.9341 12.3306C23.9776 12.2262 24 12.1142 24 12.0011C24 11.888 23.9776 11.776 23.9341 11.6715C23.8906 11.5671 23.8269 11.4724 23.7465 11.3927L12.6076 0.253519C12.528 0.173207 12.4332 0.109461 12.3288 0.0659595C12.2244 0.0224578 12.1124 6.10352e-05 11.9993 6.10352e-05C11.8862 6.10352e-05 11.7742 0.0224578 11.6697 0.0659595C11.5653 0.109461 11.4706 0.173207 11.3909 0.253519L0.251989 11.3927C0.0906433 11.554 0 11.7729 0 12.0011C0 12.2293 0.0906433 12.4481 0.251989 12.6094C0.413336 12.7708 0.632168 12.8614 0.860346 12.8614C1.08852 12.8614 1.30736 12.7708 1.4687 12.6094L11.9993 2.07006L22.5298 12.6094C22.6095 12.6897 22.7043 12.7535 22.8087 12.797C22.9131 12.8405 23.0251 12.8629 23.1382 12.8629C23.2513 12.8629 23.3633 12.8405 23.4677 12.797C23.5721 12.7535 23.6669 12.6897 23.7465 12.6094Z" fill="#991E1F"/>
</svg>
