<svg width="24" height="24" viewBox="0 0 24 24" fill="none" xmlns="http://www.w3.org/2000/svg">
<path d="M15.68 12.0783L10.823 16.9353L8.32059 14.433C7.98577 14.0981 7.44336 14.0981 7.10854 14.433C6.77372 14.7678 6.77372 15.3102 7.10854 15.645L10.2169 18.7534C10.3843 18.9208 10.6037 19.0045 10.823 19.0045C11.0423 19.0045 11.2616 18.9208 11.429 18.7534L16.892 13.2904C17.2268 12.9556 17.2268 12.4131 16.892 12.0783C16.5572 11.7435 16.0148 11.7435 15.68 12.0783Z" fill="#565656"/>
<path d="M19.7143 1.68003L18.4286 1.68003L18.4286 0.857204C18.4286 0.38385 18.0448 6.10352e-05 17.5714 6.10352e-05C17.0981 6.10352e-05 16.7143 0.38385 16.7143 0.857204L16.7143 1.68003L7.28571 1.68003L7.28571 0.857204C7.28571 0.38385 6.90193 6.10352e-05 6.42857 6.10352e-05C5.95522 6.10352e-05 5.57143 0.38385 5.57143 0.857204L5.57143 1.68003L4.28571 1.68003C1.92271 1.68003 0 3.60274 0 5.96574L0 19.7143C0 22.0773 1.92271 24.0001 4.28571 24.0001L19.7143 24.0001C22.0773 24.0001 24 22.0773 24 19.7143L24 5.96574C24 3.60274 22.0773 1.68003 19.7143 1.68003ZM1.71429 5.96574C1.71429 4.54777 2.86775 3.39431 4.28571 3.39431L5.57143 3.39431L5.57143 4.21672C5.57143 4.69007 5.95522 5.07386 6.42857 5.07386C6.90193 5.07386 7.28571 4.69007 7.28571 4.21672L7.28571 3.39431L16.7143 3.39431V4.21672C16.7143 4.69007 17.0981 5.07386 17.5714 5.07386C18.0448 5.07386 18.4286 4.69007 18.4286 4.21672V3.39431L19.7143 3.39431C21.1323 3.39431 22.2857 4.54777 22.2857 5.96574V6.83126L1.71429 6.83126L1.71429 5.96574ZM19.7143 22.2858L4.28571 22.2858C2.86775 22.2858 1.71429 21.1323 1.71429 19.7143L1.71429 8.54554L22.2857 8.54554L22.2857 19.7143C22.2857 21.1323 21.1323 22.2858 19.7143 22.2858Z" fill="#565656"/>
</svg>
