<svg width="24" height="24" viewBox="0 0 24 24" fill="none" xmlns="http://www.w3.org/2000/svg">
<path d="M2 22.0001C2 19.8783 2.84285 17.8435 4.34315 16.3432C5.84344 14.8429 7.87827 14.0001 10 14.0001C12.1217 14.0001 14.1566 14.8429 15.6569 16.3432C17.1571 17.8435 18 19.8783 18 22.0001L16 22.0001C16 20.4088 15.3679 18.8826 14.2426 17.7574C13.1174 16.6322 11.5913 16.0001 10 16.0001C8.4087 16.0001 6.88258 16.6322 5.75736 17.7574C4.63214 18.8826 4 20.4088 4 22.0001L2 22.0001ZM10 13.0001C6.685 13.0001 4 10.3151 4 7.00006C4 3.68506 6.685 1.00006 10 1.00006C13.315 1.00006 16 3.68506 16 7.00006C16 10.3151 13.315 13.0001 10 13.0001ZM10 11.0001C12.21 11.0001 14 9.21006 14 7.00006C14 4.79006 12.21 3.00006 10 3.00006C7.79 3.00006 6 4.79006 6 7.00006C6 9.21006 7.79 11.0001 10 11.0001ZM18.284 14.7031C19.6893 15.336 20.882 16.3613 21.7186 17.6558C22.5552 18.9502 23.0002 20.4588 23 22.0001L21 22.0001C21.0002 20.844 20.6666 19.7126 20.0391 18.7416C19.4116 17.7707 18.5171 17.0017 17.463 16.5271L18.284 14.7031ZM17.596 3.41306C18.6035 3.82836 19.465 4.5336 20.071 5.43929C20.6771 6.34498 21.0004 7.4103 21 8.50006C21.0004 9.87239 20.4877 11.1953 19.5625 12.2089C18.6374 13.2225 17.3667 13.8535 16 13.9781L16 11.9651C16.7409 11.8589 17.4283 11.5181 17.9613 10.9925C18.4943 10.467 18.8447 9.78438 18.9612 9.045C19.0776 8.30561 18.954 7.54836 18.6084 6.88441C18.2628 6.22047 17.7134 5.68481 17.041 5.35606L17.596 3.41306Z" fill="#565656"/>
</svg>
